<?xml version="1.0" encoding="utf-8"?>
<!-- Generator: Adobe Illustrator 23.0.3, SVG Export Plug-In . SVG Version: 6.00 Build 0)  -->
<svg version="1.1" id="Layer_1" xmlns="http://www.w3.org/2000/svg" xmlns:xlink="http://www.w3.org/1999/xlink" x="0px" y="0px"
	 viewBox="0 0 24 24" style="enable-background:new 0 0 24 24;" xml:space="preserve">
<style type="text/css">
	.st0{fill:#BF5B00;}
	.st1{fill:#7F3D00;}
</style>
<path d="M4.5,5.5l0.4,2.9c0,0.3,0.2,0.6,0.4,0.8l0.9,0.8c0.4,0.3,0.9,0.4,1.3,0.3l2-0.8c0.2-0.1,0.5-0.1,0.8,0l0.6,0.1
	c0.7,0.2,1.2,1,0.9,1.7l-0.5,1.3c0,0.1-0.1,0.3-0.1,0.4l-0.1,4.2c0,0.1,0,0.1,0,0.2l-0.5,3.4c-0.1,0.7,0.4,1.4,1.2,1.5l3.7,0.2
	c0.5,0,1-0.2,1.2-0.7l0.8-1.6c0.1-0.3,0.2-0.6,0.1-1L16,14.3l-1.2-4c-0.1-0.2-0.1-0.5,0-0.8l0.3-0.9c0.1-0.4,0.4-0.7,0.8-0.8
	l3.8-1.3c0.2-0.1,0.5-0.1,0.7,0.1v0c0.6,0.3,1.4-0.1,1.4-0.8V4.3c0-0.5-0.3-1-0.9-1.2L17.8,2c-0.2-0.1-0.4-0.1-0.7,0l-4.8,1
	c-0.2,0-0.3,0-0.5,0L6.7,1.8C6.4,1.8,6,1.8,5.8,2L4.3,2.8C3.6,3.2,3.5,4.3,4.2,4.9l0,0C4.4,5,4.5,5.2,4.5,5.5z"/>
<path class="st0" d="M4.5,4.3l0.4,2.9c0,0.3,0.2,0.6,0.4,0.8l0.9,0.8C6.5,9.1,7,9.2,7.4,9l2-0.8c0.2-0.1,0.5-0.1,0.8,0l0.6,0.1
	c0.7,0.2,1.2,1,0.9,1.7l-0.5,1.3c0,0.1-0.1,0.3-0.1,0.4l-0.1,4.2c0,0.1,0,0.1,0,0.2l-0.5,3.4C10.4,20.3,11,21,11.7,21l3.7,0.2
	c0.5,0,1-0.2,1.2-0.7l0.8-1.6c0.1-0.3,0.2-0.6,0.1-1L16,13.2l-1.2-4c-0.1-0.2-0.1-0.5,0-0.8l0.3-0.9c0.1-0.4,0.4-0.7,0.8-0.8
	l3.8-1.3c0.2-0.1,0.5-0.1,0.7,0.1v0c0.6,0.3,1.4-0.1,1.4-0.8V3.2c0-0.5-0.3-1-0.9-1.2l-3.2-1.1c-0.2-0.1-0.4-0.1-0.7,0l-4.8,1
	c-0.2,0-0.3,0-0.5,0L6.7,0.7C6.4,0.6,6,0.7,5.8,0.8L4.3,1.7C3.6,2.1,3.5,3.2,4.2,3.7l0,0C4.4,3.9,4.5,4.1,4.5,4.3z"/>
<polygon class="st1" points="14.3,5.5 13.7,6.4 13.5,8.2 13.9,10.5 14.4,12.6 14.9,15.9 14.6,18.4 14.6,20.2 16,20.5 14.9,13.5 
	13.9,8.9 "/>
<polygon class="st1" points="15,4.9 20,3.6 21.4,4.3 20,3.9 15,5.3 "/>
<polygon class="st1" points="5.6,6.5 6.5,8.2 7.4,8.2 10.7,7.4 7.1,7.6 "/>
<polygon class="st1" points="5.2,1.5 4.5,2.5 4.9,4.1 4.9,5.1 5.2,3.5 4.9,2.6 "/>
</svg>
